<?xml version="1.0" encoding="UTF-8"?>
<svg id="Layer_1" data-name="Layer 1" xmlns="http://www.w3.org/2000/svg" viewBox="0 0 114.3 106.75">
  <defs>
    <style>
      .cls-1 {
        fill: #1e398d;
        fill-rule: evenodd;
      }
    </style>
  </defs>
  <path class="cls-1" d="M52.34,96.81c-.13-2.14-.26-4.2-.38-6.25-.12-2.07-.24-4.13-.33-6.2-.09-2.05-.14-4.09-.2-6.14-.06-2.07-.12-4.13-.18-6.25-.32.04-.6.05-.87.1-.24.05-.48.02-.72-.04-2.89-.84-5.64-1.99-8.16-3.66-.37-.24-.59-.55-.69-.98-.39-1.74-.73-3.49-.87-5.27-.07-.9-.11-1.8-.14-2.7-.02-.65.03-.71.6-1.27.6.35,1.13.82,1.7,1.21.58.4,1.15.81,1.73,1.21.58.4,1.17.79,1.75,1.18.59.39,1.18.77,1.78,1.14.6.37,1.2.74,1.8,1.1.6.36,1.21.72,1.82,1.07.61.35,1.23.69,1.84,1.03.61.34,1.23.67,1.88,1.02.11.2.11.45.14.68.15,1.71.29,3.42.44,5.13.13,1.38.25,2.76.39,4.14.01.15.06.31.14.43.4.6.82,1.19,1.26,1.83.1-.08.2-.14.25-.21.36-.5.7-1.01,1.06-1.52.11-.17.19-.34.2-.55.13-1.54.26-3.07.4-4.6.11-1.18.23-2.37.34-3.55.02-.26.03-.53.06-.79.03-.33.07-.65.11-.97,5.02-2.65,9.81-5.61,14.33-9.02.4.32.64.67.63,1.18,0,1.28-.08,2.55-.24,3.82-.17,1.4-.45,2.78-.74,4.16-.11.51-.35.86-.8,1.14-2.49,1.63-5.2,2.76-8.04,3.6-.25.07-.51.12-.78.05-.13-.03-.26-.03-.39-.05-.13-.02-.25-.04-.39-.06-.11.27-.09.54-.09.79-.03,1.06-.03,2.12-.06,3.17-.06,2.07-.13,4.14-.21,6.21-.05,1.41-.11,2.82-.17,4.23-.07,1.41-.15,2.81-.23,4.22-.04.68-.07,1.36-.12,2.04-.09,1.36-.18,2.72-.27,4.08.2.1.3-.06.41-.15,1.32-1.03,2.55-2.16,3.68-3.4,2.82-3.08,5.01-6.57,6.75-10.36,1.6-3.52,2.77-7.18,3.54-10.97.16-.8.29-1.6.44-2.4.05-.23.01-.42-.1-.63-.17-.31-.34-.62-.45-.95-.52-1.47-.47-2.89.36-4.25.04-.08.08-.15.14-.25-.14-.29-.27-.59-.42-.88-.18-.33-.18-.64-.04-1.01.57-1.5.99-3.05,1.27-4.64.29-1.59.41-3.19.41-4.8.01-4.23-.91-8.25-2.83-12.03-1.74-3.42-4.14-6.28-7.29-8.47-2.05-1.42-4.28-2.43-6.71-2.98-.09-.02-.17-.06-.24-.1-.02,0-.03-.03-.08-.09.02-.09.03-.22.06-.34,1.43-5.53,3.68-10.68,6.97-15.37.19-.27.38-.54.58-.8.28-.34.5-.37.84-.1.18.13.34.28.5.43,2.87,2.61,5.31,5.58,7.36,8.87,2.78,4.44,4.76,9.22,6.09,14.27.63,2.36,1.1,4.76,1.42,7.18.47,3.52.67,7.06.54,10.61-.36,9.76-2.68,19.01-7.23,27.67-2.52,4.79-5.63,9.14-9.46,12.97-3.12,3.12-6.6,5.76-10.53,7.78-.23.12-.47.24-.74.37-.15-.06-.31-.12-.46-.2-3.06-1.55-5.87-3.47-8.46-5.72-4.51-3.93-8.15-8.57-11.08-13.77-2.91-5.15-4.99-10.62-6.34-16.38-.56-2.4-.98-4.83-1.27-7.28-.37-3.2-.52-6.41-.41-9.63.21-6,1.19-11.86,3.15-17.54,1.66-4.8,3.93-9.27,6.96-13.35,1.59-2.15,3.38-4.12,5.36-5.91.18-.16.36-.33.56-.46.23-.15.47-.11.65.1.1.11.19.24.28.37,2.73,3.75,4.77,7.85,6.25,12.24.38,1.12.69,2.27,1.03,3.41.05.19.09.38.13.6-.11.06-.2.12-.3.15-3.98.92-7.32,2.94-10.12,5.89-2.82,2.97-4.69,6.47-5.79,10.39-.7,2.5-.99,5.04-.96,7.64.03,3.09.59,6.08,1.67,8.97.15.41.14.76-.06,1.13-.13.25-.26.51-.39.78.06.1.1.2.15.29.82,1.36.86,2.79.34,4.25-.12.33-.29.64-.46.95-.1.18-.13.36-.1.57,1.03,6.32,3.01,12.3,6.31,17.81,1.73,2.89,3.78,5.52,6.27,7.8.6.55,1.24,1.06,1.86,1.58.1.08.22.13.39.24Z"/>
  <path class="cls-1" d="M1.89,50.1c.05.12.11.21.13.32.57,5.28,2.27,10.2,4.68,14.9,2.23,4.38,5.02,8.38,8.21,12.11,4.88,5.72,10.49,10.6,16.7,14.81,7.72,5.23,16.04,9.22,24.95,11.97.42.13.79.13,1.2,0,10.81-3.35,20.71-8.46,29.65-15.39,4.95-3.83,9.43-8.14,13.35-13.03,3.38-4.21,6.24-8.74,8.37-13.71,1.27-2.98,2.24-6.07,2.82-9.26.13-.73.21-1.48.32-2.22.02-.15.06-.29.1-.47.2.08.24.22.28.36.31,1.19.65,2.38.91,3.58.5,2.31.73,4.66.75,7.01.01,1.63-.08,3.25-.29,4.88-.97,7.5-4.06,14.07-8.8,19.89-3.52,4.33-7.71,7.89-12.42,10.87-5.27,3.32-10.93,5.74-16.92,7.41-2.54.71-5.12,1.27-7.73,1.68-1.56.25-3.13.44-4.71.59-1.84.17-3.69.26-5.54.32-.86.03-1.72-.01-2.57-.05-1.06-.04-2.11-.09-3.17-.17-1.18-.1-2.36-.21-3.54-.36-1.2-.15-2.4-.34-3.58-.54-2.39-.39-4.74-.95-7.07-1.61-5.05-1.44-9.88-3.43-14.44-6.06-4.78-2.76-9.1-6.11-12.81-10.2-3.5-3.85-6.28-8.15-8.18-13.01-1.03-2.63-1.76-5.35-2.16-8.15-.3-2.1-.4-4.2-.34-6.32.09-3.19.61-6.3,1.51-9.36.08-.26.09-.57.36-.8Z"/>
  <path class="cls-1" d="M56.77,103.85c-.3.04-.5-.1-.72-.19-2.05-.81-4.04-1.74-5.98-2.78-4.5-2.4-8.69-5.27-12.64-8.5-6.98-5.71-13.04-12.27-18.16-19.7-2.84-4.13-5.3-8.46-7.26-13.08-1.21-2.86-2.2-5.8-2.89-8.83-.57-2.5-.92-5.02-.95-7.59-.03-2.66.31-5.27,1.25-7.77,1.28-3.36,3.44-5.95,6.59-7.71,1.08-.61,2.2-1.09,3.43-1.32,2.3-.44,4.51-.17,6.63.83.04.02.08.04.12.05.58.29.86.76.47,1.46-.71,1.27-1.29,2.6-1.79,3.96-.86,2.32-1.45,4.7-1.86,7.14-.38,2.31-.56,4.63-.57,6.97,0,1.52.05,3.04.17,4.55.72,9.25,3.56,17.87,7.97,25.99,3.2,5.88,7.15,11.2,11.94,15.89,3.62,3.54,7.62,6.6,12.09,9.01.4.22.82.42,1.22.64.33.18.63.41.83.73.04.06.06.15.09.26Z"/>
  <path class="cls-1" d="M57.52,103.87c.08-.35.28-.56.51-.72.21-.16.44-.3.67-.42,5.52-2.8,10.31-6.57,14.56-11.03,6.09-6.39,10.69-13.73,14-21.9,1.57-3.86,2.75-7.84,3.55-11.93.31-1.62.54-3.25.73-4.9.19-1.71.28-3.43.31-5.14.04-1.58-.05-3.17-.19-4.75-.21-2.57-.65-5.1-1.34-7.59-.63-2.28-1.48-4.47-2.58-6.56-.08-.15-.17-.31-.23-.47-.16-.4-.04-.81.32-1.05.16-.11.34-.2.53-.28,1.89-.84,3.86-1.15,5.92-.85,1.37.2,2.63.66,3.84,1.33,1.32.73,2.52,1.61,3.57,2.7,1.82,1.88,2.98,4.13,3.67,6.63.4,1.45.61,2.93.7,4.42.17,2.95-.14,5.85-.74,8.73-1.01,4.83-2.79,9.39-5.03,13.78-2.63,5.16-5.84,9.94-9.47,14.44-4.47,5.54-9.47,10.54-15.06,14.96-4.08,3.23-8.41,6.09-13.08,8.42-1.56.78-3.14,1.49-4.77,2.11-.11.04-.24.05-.4.09Z"/>
  <path class="cls-1" d="M48.86,5.42c.03-.27.06-.45.07-.62.03-.31.19-.52.46-.67.61-.33,1.23-.68,1.84-1.02,1.68-.93,3.35-1.85,5.02-2.78.13-.07.27-.14.41-.22.28-.15.54-.15.82,0,.13.07.28.14.41.21,2.22,1.21,4.44,2.42,6.66,3.63.08.04.15.09.23.13.29.13.44.36.47.66.02.26.06.53.02.79-.06.41-.13.83-.25,1.23-1.32,4.47-2.64,8.93-3.97,13.4-.2.69-.13.85-1.17.99-.76.1-1.52.24-2.28.34-.28.04-.57.05-.85.02-.87-.11-1.74-.26-2.61-.37-.48-.06-.73-.29-.87-.76-.64-2.17-1.31-4.33-1.96-6.5-.71-2.36-1.44-4.71-2.14-7.07-.15-.48-.22-.98-.32-1.38Z"/>
</svg>