<?xml version="1.0" encoding="UTF-8" standalone="no"?><!DOCTYPE svg PUBLIC "-//W3C//DTD SVG 1.1//EN" "http://www.w3.org/Graphics/SVG/1.1/DTD/svg11.dtd"><svg width="100%" height="100%" viewBox="0 0 2225 2225" version="1.1" xmlns="http://www.w3.org/2000/svg" xmlns:xlink="http://www.w3.org/1999/xlink" xml:space="preserve" xmlns:serif="http://www.serif.com/" style="fill-rule:evenodd;clip-rule:evenodd;stroke-linejoin:round;stroke-miterlimit:2;"><g id="icon-image"><path d="M1547.62,1785.71l-1111.11,-0l0,-1111.11l714.284,0l-0,-158.729l-714.284,0c-87.3,0 -158.729,71.425 -158.729,158.729l0,1111.11c0,87.304 71.429,158.733 158.729,158.733l1111.11,-0c87.3,-0 158.729,-71.429 158.729,-158.733l0,-714.284l-158.729,0l-0,714.284Zm-618.254,-251.588l-155.559,-187.3l-218.254,280.158l873.017,0l-280.95,-373.808l-218.254,280.95Zm776.983,-1018.25l0,-238.096l-158.729,0l-0,238.096l-238.096,0c0.792,0.792 -0,158.729 -0,158.729l238.096,0l-0,237.3c0.791,0.796 158.729,0 158.729,0l0,-237.3l238.096,0l-0,-158.729l-238.096,0Z" style="fill-opacity:0.13;fill-rule:nonzero;"/></g></svg>